<?xml version="1.0" encoding="UTF-8" standalone="no"?>
<!-- Created with Inkscape (http://www.inkscape.org/) -->

<svg
   xmlns:dc="http://purl.org/dc/elements/1.1/"
   xmlns:cc="http://creativecommons.org/ns#"
   xmlns:rdf="http://www.w3.org/1999/02/22-rdf-syntax-ns#"
   xmlns:svg="http://www.w3.org/2000/svg"
   xmlns="http://www.w3.org/2000/svg"
   xmlns:sodipodi="http://sodipodi.sourceforge.net/DTD/sodipodi-0.dtd"
   xmlns:inkscape="http://www.inkscape.org/namespaces/inkscape"
   version="1.1"
   id="svg2"
   xml:space="preserve"
   width="456.62668"
   height="183.53333"
   viewBox="0 0 456.62668 183.53333"
   sodipodi:docname="mobile_store.svg"
   inkscape:version="0.92.4 (unknown)"><metadata
     id="metadata8"><rdf:RDF><cc:Work
         rdf:about=""><dc:format>image/svg+xml</dc:format><dc:type
           rdf:resource="http://purl.org/dc/dcmitype/StillImage" /><dc:title></dc:title></cc:Work></rdf:RDF></metadata><defs
     id="defs6" /><sodipodi:namedview
     pagecolor="#ffffff"
     bordercolor="#666666"
     borderopacity="1"
     objecttolerance="10"
     gridtolerance="10"
     guidetolerance="10"
     inkscape:pageopacity="0"
     inkscape:pageshadow="2"
     inkscape:window-width="1366"
     inkscape:window-height="716"
     id="namedview4"
     showgrid="false"
     inkscape:zoom="0.84970944"
     inkscape:cx="228.31334"
     inkscape:cy="91.766663"
     inkscape:window-x="0"
     inkscape:window-y="0"
     inkscape:window-maximized="1"
     inkscape:current-layer="g10" /><g
     id="g10"
     inkscape:groupmode="layer"
     inkscape:label="ink_ext_XXXXXX"
     transform="matrix(1.3333333,0,0,-1.3333333,0,183.53333)"><g
       id="g12"
       transform="scale(0.1)"><path
         d="m 1440.58,409.895 c -10.7,0 -15.2,-9.707 -15.9,-16.739 h 30.11 c 0.14,6.328 -2.68,16.739 -14.21,16.739 z M 767.48,372.34 c 0,-6.762 4.364,-9.871 9.844,-9.871 7.039,0 11.961,4.511 13.653,9.441 0.418,1.262 0.418,2.531 0.418,3.801 v 9.418 C 779.16,385.266 767.48,382.746 767.48,372.34 Z m 333.03,36.851 c -12.25,0 -17.17,-11.953 -17.17,-23.351 0,-13.231 6.61,-23.219 17.03,-23.219 9.84,0 16.74,9.57 16.74,23.492 0,10.696 -4.79,23.078 -16.6,23.078 z m -116.272,0.704 c -10.691,0 -15.195,-9.707 -15.898,-16.739 h 30.105 c 0.141,6.328 -2.675,16.739 -14.207,16.739 z m -124.57,-1.68 c -7.031,0 -13.508,-5.078 -15.332,-12.664 -0.293,-1.274 -0.578,-2.817 -0.578,-4.504 v -11.113 c 0,-1.407 0.148,-2.825 0.43,-4.094 1.828,-7.02 7.882,-12.102 15.332,-12.102 10.839,0 17.453,8.602 17.453,22.516 0,12.098 -5.774,21.961 -17.305,21.961 z M 1470.67,184.43 h -88.7 c 0.35,-13.121 4.64,-23.121 12.88,-30.039 7.46,-6.219 17.12,-9.332 29,-9.332 13.16,0 25.08,2.089 35.86,6.351 l 4.65,-20.558 c -12.54,-5.52 -27.45,-8.192 -44.64,-8.192 -20.58,0 -36.78,6.031 -48.55,18.16 -11.76,12.129 -17.69,28.418 -17.69,48.84 0,20.11 5.5,36.77 16.42,50.149 11.55,14.211 27.06,21.312 46.55,21.312 19.22,0 33.71,-7.101 43.53,-21.312 7.82,-11.348 11.77,-25.329 11.77,-41.938 0,-5.25 -0.38,-9.723 -1.08,-13.441 z m -122.01,208.304 v -41.086 h -17.29 v 99.887 h 17.29 v -40.652 h 0.29 c 2.1,3.23 5.06,5.906 8.58,7.73 3.51,1.985 7.6,3.098 11.96,3.098 11.68,0 23.93,-7.734 23.93,-29.688 v -40.375 h -17.32 v 38.547 c 0,9.856 -3.66,17.453 -13.22,17.453 -6.76,0 -11.54,-4.511 -13.5,-9.707 -0.57,-1.554 -0.72,-3.378 -0.72,-5.207 z m -4.48,-160.605 c -2.91,0.531 -6.05,0.75 -9.31,0.75 -10.4,0 -18.41,-3.918 -24.08,-11.75 -4.94,-6.949 -7.39,-15.578 -7.39,-26.25 V 125.09 h -29.56 v 91.191 c 0,15.239 -0.27,29.207 -0.79,41.848 h 25.72 l 1.1,-25.469 h 0.81 c 3.09,8.731 7.99,15.781 14.78,21.031 6.57,4.797 13.72,7.098 21.38,7.098 2.71,0 5.19,-0.141 7.34,-0.5 z m -75.88,188.039 h 9.71 v 12.812 l 17.03,4.786 v -17.598 h 16.45 v -12.941 h -16.45 v -30.254 c 0,-8.442 2.25,-12.664 8.86,-12.664 3.09,0 4.78,0.14 6.75,0.703 l 0.29,-13.09 c -2.54,-0.973 -7.18,-1.832 -12.52,-1.832 -6.48,0 -11.69,2.121 -14.92,5.629 -3.8,3.941 -5.49,10.281 -5.49,19.281 v 32.227 h -9.71 z m -30.55,-277.879 c -12.26,-13.469 -28.5,-20.211 -48.71,-20.211 -19.56,0 -35.16,6.473 -46.74,19.434 -11.57,12.918 -17.34,29.316 -17.34,49 0,20.597 5.96,37.5 17.91,50.617 11.97,13.191 28.03,19.672 48.28,19.672 19.6,0 35.28,-6.41 47.14,-19.43 11.28,-12.519 16.94,-28.812 16.94,-48.68 0,-20.5 -5.8,-37.222 -17.48,-50.402 z M 1099.8,350.09 c -19.27,0 -34.33,13.238 -34.33,35.32 0,22.512 14.77,36.301 35.46,36.301 20.4,0 34.05,-14.356 34.05,-35.176 0,-25.183 -17.73,-36.445 -35.18,-36.445 z m 16.67,-114.11 h -32.62 v -64.671 c 0,-16.411 5.79,-24.547 17.29,-24.547 5.29,0 9.63,0.386 13.13,1.289 l 0.84,-22.391 c -5.85,-2.191 -13.5,-3.301 -22.99,-3.301 -11.62,0 -20.81,3.512 -27.36,10.68 -6.63,7.082 -9.9,19.051 -9.9,35.84 v 67.101 h -19.41 v 22.149 h 19.41 v 24.34 l 28.99,8.761 v -33.101 h 32.62 z m -104.21,-97.46 c -12.07,-10.782 -28.803,-16.141 -50.268,-16.141 -19.894,0 -35.801,3.851 -47.812,11.48 l 6.867,24.629 c 12.945,-7.629 27.168,-11.5 42.644,-11.5 11.18,0 19.825,2.543 26.036,7.524 6.171,5 9.277,11.699 9.277,20.199 0,7.379 -2.559,13.68 -7.637,18.82 -5.156,5.098 -13.574,9.809 -25.449,14.231 -32.266,12.008 -48.43,29.617 -48.43,52.789 0,15.14 5.637,27.59 17.063,37.25 11.406,9.648 26.504,14.5 45.32,14.5 16.777,0 30.749,-2.942 41.899,-8.742 l -7.46,-24.098 c -10.4,5.641 -22.22,8.5 -35.404,8.5 -10.422,0 -18.593,-2.652 -24.472,-7.641 -4.914,-4.629 -7.383,-10.191 -7.383,-16.738 0,-7.25 2.832,-13.301 8.476,-18.113 4.942,-4.36 13.887,-9.078 26.797,-14.18 15.93,-6.34 27.566,-13.867 35.076,-22.469 7.46,-8.57 11.22,-19.23 11.22,-31.98 0,-15.711 -5.49,-28.52 -16.36,-38.32 z M 863.469,350.09 c -8.871,0 -16.75,3.379 -21.672,11.832 h -0.285 l -0.836,-10.274 h -14.778 c 0.282,4.641 0.567,12.231 0.567,19.282 v 80.605 h 17.293 v -40.793 h 0.285 c 4.219,6.613 11.68,10.969 21.953,10.969 16.746,0 28.699,-13.926 28.563,-34.746 0,-24.625 -15.614,-36.875 -31.09,-36.875 z M 843.164,139.551 c -11.016,-11.629 -24.656,-17.473 -41.008,-17.473 -17.605,0 -30.261,6.281 -37.945,18.922 V 71.1289 H 734.637 V 214.41 c 0,14.219 -0.379,28.77 -1.09,43.719 h 25.933 l 1.711,-21.078 h 0.508 c 9.922,15.82 24.832,23.75 44.903,23.75 15.703,0 28.796,-6.153 39.285,-18.59 10.519,-12.379 15.754,-28.75 15.754,-48.992 0,-22.688 -6.145,-40.5 -18.477,-53.668 z M 727.773,351.648 h -17.296 v 99.887 h 17.296 z M 697.012,139.551 c -10.989,-11.629 -24.688,-17.473 -40.996,-17.473 -17.657,0 -30.293,6.281 -37.981,18.922 V 71.1289 H 588.496 V 214.41 c 0,14.219 -0.383,28.77 -1.133,43.719 h 26.004 L 615,237.051 h 0.516 c 9.906,15.82 24.843,23.75 44.945,23.75 15.691,0 28.75,-6.153 39.305,-18.59 10.457,-12.379 15.722,-28.75 15.722,-48.992 0,-22.688 -6.144,-40.5 -18.476,-53.668 z M 581.27,370.5 c 0,17.168 15.332,26.035 40.664,25.887 v 1.125 c 0,4.5 -1.836,11.972 -13.938,11.972 -6.758,0 -13.777,-2.129 -18.426,-5.078 l -3.379,11.262 c 5.059,3.094 13.926,6.043 24.766,6.043 21.941,0 28.281,-13.926 28.281,-28.977 v -24.625 c 0,-6.187 0.274,-12.238 1.121,-16.461 h -15.625 l -1.257,7.59 h -0.422 c -4.082,-5.34 -11.258,-9.148 -20.262,-9.148 -13.789,0 -21.523,10 -21.523,20.41 z m -35.625,-18.852 h -17.032 l -25.468,68.52 h 18.718 l 11.106,-34.758 c 1.972,-6.043 3.379,-11.531 4.648,-17.172 h 0.43 c 1.258,5.641 2.812,10.992 4.637,17.172 l 10.976,34.758 h 18.156 z M 538.926,125.09 521.699,179.238 H 461.738 L 445.293,125.09 h -30.625 l 59.344,184.48 h 36.718 l 59.7,-184.48 z m -208.887,6.93 c 0,-16.711 -13.625,-30.25 -30.32,-30.25 H 169.766 c -16.719,0 -30.34,13.539 -30.34,30.25 v 288.773 c 0,16.711 13.621,30.293 30.34,30.293 h 129.953 c 16.695,0 30.32,-13.582 30.32,-30.293 z m 115.242,314.457 h 22.09 l 30.813,-94.829 h -18.711 l -8.575,26.879 h -29.98 l -8.164,-26.879 h -17.871 z m 238.02,-26.309 v -68.52 h -17.293 v 68.52 z m -8.574,28.562 c 5.906,0 9.57,-4.089 9.707,-9.421 0,-5.071 -3.801,-9.297 -9.856,-9.297 -5.769,0 -9.558,4.226 -9.558,9.297 0,5.332 3.933,9.421 9.707,9.421 z m 102.324,-39.246 c -6.758,0 -13.789,-2.129 -18.43,-5.078 l -3.379,11.262 c 5.059,3.094 13.93,6.043 24.758,6.043 21.953,0 28.293,-13.926 28.293,-28.977 v -24.625 c 0,-6.187 0.27,-12.238 1.109,-16.461 h -15.613 l -1.262,7.59 h -0.418 c -4.082,-5.34 -11.261,-9.148 -20.265,-9.148 -13.797,0 -21.531,10 -21.531,20.41 0,17.168 15.332,26.035 40.664,25.887 v 1.125 c 0,4.5 -1.836,11.972 -13.926,11.972 z m 137.246,42.051 h 17.297 v -99.887 h -17.297 z m 70.926,-29.824 c 22.227,0 29.557,-18.281 29.557,-33.34 0,-3.242 -0.29,-5.781 -0.57,-7.324 h -45.87 c 0.418,-12.375 9.988,-17.719 21.101,-17.719 8.02,0 13.649,1.25 18.999,3.094 l 2.53,-11.82 c -5.91,-2.532 -14.068,-4.352 -23.919,-4.352 -22.227,0 -35.313,13.629 -35.313,34.594 0,19.004 11.532,36.867 33.485,36.867 z m 181.727,-1.543 0.84,-10.273 h 0.43 c 3.09,5.351 10.55,11.816 21.95,11.816 11.96,0 24.34,-7.734 24.34,-29.395 v -40.668 h -17.3 v 38.696 c 0,9.844 -3.67,17.304 -13.09,17.304 -6.89,0 -11.68,-4.921 -13.52,-10.136 -0.56,-1.407 -0.84,-3.516 -0.84,-5.489 v -40.375 h -17.3 v 48.11 c 0,7.89 -0.28,14.492 -0.57,20.41 z m 274.61,1.543 c 22.23,0 29.55,-18.281 29.55,-33.34 0,-3.242 -0.28,-5.781 -0.56,-7.324 h -45.87 c 0.42,-12.375 9.99,-17.719 21.1,-17.719 8.02,0 13.65,1.25 18.99,3.094 l 2.53,-11.82 c -5.9,-2.532 -14.06,-4.352 -23.91,-4.352 -22.23,0 -35.31,13.629 -35.31,34.594 0,19.004 11.53,36.867 33.48,36.867 z m 92.39,131.309 H 77.2344 C 40.1641,553.02 10,522.863 10,485.773 V 67.1484 C 10,30.1211 40.1641,0 77.2344,0 H 1533.95 c 37.07,0 67.24,30.1211 67.24,67.1484 V 485.773 c 0,37.09 -30.17,67.247 -67.24,67.247 z M 460.625,414.965 c -1.836,5.769 -3.379,12.234 -4.785,17.723 h -0.293 c -1.399,-5.489 -2.949,-12.09 -4.5,-17.723 l -7.309,-23.363 h 24.336 z M 621.934,371.91 c 0.41,1.262 0.41,2.531 0.41,3.801 v 9.418 c -12.239,0.137 -23.906,-2.383 -23.906,-12.789 0,-6.762 4.355,-9.871 9.843,-9.871 7.032,0 11.953,4.511 13.653,9.441 z M 1414.27,240.629 c -9.65,0 -17.49,-4.117 -23.54,-12.098 -4.92,-6.371 -7.87,-14.051 -8.76,-22.941 h 61.58 c 0.16,8.73 -1.71,16.269 -5.72,22.691 -5.13,8.18 -13,12.348 -23.56,12.348 z M 491.563,284.93 h -0.516 c -1.859,-7.852 -4.738,-19.41 -8.789,-34.758 L 466.926,201.98 h 49.527 l -15.535,48.192 c -1.68,4.949 -4.816,16.539 -9.355,34.758 z m 305.468,-47.59 c -7.324,0 -13.867,-2.399 -19.824,-7.231 -5.93,-4.898 -9.824,-11.238 -11.66,-19.089 -0.91,-3.68 -1.336,-6.661 -1.336,-9.051 v -22.137 c 0,-9.691 2.918,-17.883 8.875,-24.543 5.918,-6.598 13.641,-9.949 23.086,-9.949 11.191,0 19.844,4.262 26.055,12.859 6.218,8.582 9.336,19.891 9.336,33.981 0,12.922 -2.942,23.609 -8.762,31.98 -6.434,8.719 -15.02,13.18 -25.77,13.18 z m 393.039,1.84 c -11.83,0 -20.87,-5.25 -27.04,-15.821 -5.35,-8.699 -7.97,-19.32 -7.97,-31.879 0,-12.242 2.62,-22.679 7.97,-31.398 6.32,-10.551 15.27,-15.801 26.82,-15.801 11.24,0 20.13,5.321 26.48,16.129 5.51,8.828 8.26,19.422 8.26,31.578 0,12.172 -2.64,22.672 -7.9,31.371 -6.29,10.571 -15.11,15.821 -26.62,15.821 z m -539.23,-1.84 c -7.285,0 -13.867,-2.399 -19.817,-7.231 -5.945,-4.898 -9.804,-11.238 -11.64,-19.089 -0.899,-3.68 -1.348,-6.661 -1.348,-9.051 v -22.137 c 0,-9.691 2.91,-17.883 8.879,-24.543 5.918,-6.598 13.641,-9.949 23.113,-9.949 11.106,0 19.836,4.262 26.028,12.859 6.203,8.582 9.277,19.891 9.277,33.981 0,12.922 -2.883,23.609 -8.73,31.98 -6.418,8.719 -14.981,13.18 -25.762,13.18 z M 157.852,162.672 H 311.609 V 390.07 H 157.852 Z m 76.867,-13.434 c -8.625,0 -15.656,-7.047 -15.656,-15.699 0,-8.641 7.031,-15.668 15.656,-15.668 8.66,0 15.672,7.027 15.672,15.668 0,8.652 -7.012,15.699 -15.672,15.699 z m -15.063,264.035 h 30.129 c 1.973,0 3.582,1.622 3.582,3.516 0,1.992 -1.609,3.602 -3.582,3.602 h -30.129 c -1.914,0 -3.554,-1.61 -3.554,-3.602 0,-1.894 1.64,-3.516 3.554,-3.516"
         style="fill:#4f4c4c;fill-opacity:1;fill-rule:nonzero;stroke:none"
         id="path14"
         inkscape:connector-curvature="0" /><path
         d="m 1440.58,1213.39 c -10.7,0 -15.2,-9.71 -15.9,-16.75 h 30.11 c 0.14,6.34 -2.68,16.75 -14.21,16.75 z m -673.1,-37.57 c 0,-6.75 4.364,-9.85 9.844,-9.85 7.039,0 11.961,4.5 13.653,9.43 0.418,1.26 0.418,2.53 0.418,3.8 v 9.42 c -12.235,0.14 -23.915,-2.39 -23.915,-12.8 z m 333.03,36.87 c -12.25,0 -17.17,-11.96 -17.17,-23.36 0,-13.23 6.61,-23.22 17.03,-23.22 9.84,0 16.74,9.57 16.74,23.5 0,10.69 -4.79,23.08 -16.6,23.08 z m -116.272,0.7 c -10.691,0 -15.195,-9.71 -15.898,-16.75 h 30.105 c 0.141,6.34 -2.675,16.75 -14.207,16.75 z m -124.57,-1.69 c -7.031,0 -13.508,-5.07 -15.332,-12.66 -0.293,-1.27 -0.578,-2.81 -0.578,-4.51 v -11.11 c 0,-1.41 0.148,-2.82 0.43,-4.09 1.828,-7.03 7.882,-12.09 15.332,-12.09 10.839,0 17.453,8.58 17.453,22.5 0,12.11 -5.774,21.96 -17.305,21.96 z M 1470.67,987.926 h -88.7 c 0.35,-13.125 4.64,-23.125 12.88,-30.047 7.46,-6.223 17.12,-9.328 29,-9.328 13.16,0 25.08,2.09 35.86,6.347 l 4.65,-20.554 c -12.54,-5.52 -27.45,-8.196 -44.64,-8.196 -20.58,0 -36.78,6.036 -48.55,18.165 -11.76,12.128 -17.69,28.417 -17.69,48.839 0,20.108 5.5,36.768 16.42,50.148 11.55,14.22 27.06,21.32 46.55,21.32 19.22,0 33.71,-7.1 43.53,-21.32 7.82,-11.35 11.77,-25.32 11.77,-41.94 0,-5.251 -0.38,-9.723 -1.08,-13.434 z m -122.01,208.304 v -41.09 h -17.29 v 99.89 h 17.29 v -40.66 h 0.29 c 2.1,3.24 5.06,5.91 8.58,7.74 3.51,1.98 7.6,3.1 11.96,3.1 11.68,0 23.93,-7.74 23.93,-29.69 v -40.38 h -17.32 v 38.55 c 0,9.85 -3.66,17.45 -13.22,17.45 -6.76,0 -11.54,-4.51 -13.5,-9.71 -0.57,-1.55 -0.72,-3.38 -0.72,-5.2 z m -4.48,-160.61 c -2.91,0.53 -6.05,0.76 -9.31,0.76 -10.4,0 -18.41,-3.93 -24.08,-11.75 -4.94,-6.96 -7.39,-15.59 -7.39,-26.255 v -69.793 h -29.56 v 91.188 c 0,15.25 -0.27,29.21 -0.79,41.85 h 25.72 l 1.1,-25.47 h 0.81 c 3.09,8.73 7.99,15.78 14.78,21.03 6.57,4.8 13.72,7.11 21.38,7.11 2.71,0 5.19,-0.15 7.34,-0.5 z m -75.88,188.04 h 9.71 v 12.8 l 17.03,4.79 v -17.59 h 16.45 v -12.94 h -16.45 v -30.26 c 0,-8.44 2.25,-12.66 8.86,-12.66 3.09,0 4.78,0.15 6.75,0.7 l 0.29,-13.08 c -2.54,-0.98 -7.18,-1.83 -12.52,-1.83 -6.48,0 -11.69,2.11 -14.92,5.62 -3.8,3.95 -5.49,10.28 -5.49,19.28 v 32.23 h -9.71 z m -30.55,-277.883 c -12.26,-13.464 -28.5,-20.203 -48.71,-20.203 -19.56,0 -35.16,6.465 -46.74,19.422 -11.57,12.93 -17.34,29.328 -17.34,49.004 0,20.61 5.96,37.5 17.91,50.63 11.97,13.18 28.03,19.66 48.28,19.66 19.6,0 35.28,-6.41 47.14,-19.43 11.28,-12.52 16.94,-28.81 16.94,-48.68 0,-20.5 -5.8,-37.219 -17.48,-50.403 z M 1099.8,1153.59 c -19.27,0 -34.33,13.23 -34.33,35.31 0,22.52 14.77,36.31 35.46,36.31 20.4,0 34.05,-14.36 34.05,-35.18 0,-25.19 -17.73,-36.44 -35.18,-36.44 z m 16.67,-114.12 h -32.62 v -64.669 c 0,-16.406 5.79,-24.551 17.29,-24.551 5.29,0 9.63,0.391 13.13,1.289 l 0.84,-22.391 c -5.85,-2.187 -13.5,-3.293 -22.99,-3.293 -11.62,0 -20.81,3.508 -27.36,10.676 -6.63,7.078 -9.9,19.051 -9.9,35.84 v 67.099 h -19.41 v 22.15 h 19.41 v 24.35 l 28.99,8.75 v -33.1 h 32.62 z m -104.21,-97.462 c -12.07,-10.781 -28.803,-16.133 -50.268,-16.133 -19.894,0 -35.801,3.848 -47.812,11.477 l 6.867,24.628 c 12.945,-7.628 27.168,-11.496 42.644,-11.496 11.18,0 19.825,2.539 26.036,7.52 6.171,5 9.277,11.699 9.277,20.195 0,7.383 -2.559,13.684 -7.637,18.821 -5.156,5.11 -13.574,9.81 -25.449,14.23 -32.266,12.01 -48.43,29.63 -48.43,52.79 0,15.15 5.637,27.59 17.063,37.26 11.406,9.64 26.504,14.49 45.32,14.49 16.777,0 30.749,-2.94 41.899,-8.74 l -7.46,-24.09 c -10.4,5.63 -22.22,8.49 -35.404,8.49 -10.422,0 -18.593,-2.65 -24.472,-7.63 -4.914,-4.63 -7.383,-10.2 -7.383,-16.75 0,-7.25 2.832,-13.29 8.476,-18.11 4.942,-4.35 13.887,-9.08 26.797,-14.18 15.93,-6.33 27.566,-13.87 35.076,-22.47 7.46,-8.57 11.22,-19.228 11.22,-31.982 0,-15.703 -5.49,-28.515 -16.36,-38.32 z M 863.469,1153.59 c -8.871,0 -16.75,3.37 -21.672,11.82 h -0.285 l -0.836,-10.27 h -14.778 c 0.282,4.64 0.567,12.24 0.567,19.28 v 80.61 h 17.293 v -40.8 h 0.285 c 4.219,6.62 11.68,10.98 21.953,10.98 16.746,0 28.699,-13.93 28.563,-34.75 0,-24.63 -15.614,-36.87 -31.09,-36.87 z M 843.164,943.043 c -11.016,-11.629 -24.656,-17.469 -41.008,-17.469 -17.605,0 -30.261,6.278 -37.945,18.914 V 874.625 H 734.637 V 1017.9 c 0,14.23 -0.379,28.78 -1.09,43.72 h 25.933 l 1.711,-21.08 h 0.508 c 9.922,15.82 24.832,23.75 44.903,23.75 15.703,0 28.796,-6.15 39.285,-18.59 10.519,-12.38 15.754,-28.75 15.754,-48.985 0,-22.695 -6.145,-40.508 -18.477,-53.672 z M 727.773,1155.14 h -17.296 v 99.89 h 17.296 z M 697.012,943.043 c -10.989,-11.629 -24.688,-17.469 -40.996,-17.469 -17.657,0 -30.293,6.278 -37.981,18.914 V 874.625 H 588.496 V 1017.9 c 0,14.23 -0.383,28.78 -1.133,43.72 h 26.004 L 615,1040.54 h 0.516 c 9.906,15.82 24.843,23.75 44.945,23.75 15.691,0 28.75,-6.15 39.305,-18.59 10.457,-12.38 15.722,-28.75 15.722,-48.985 0,-22.695 -6.144,-40.508 -18.476,-53.672 z M 581.27,1173.99 c 0,17.17 15.332,26.03 40.664,25.89 v 1.13 c 0,4.49 -1.836,11.96 -13.938,11.96 -6.758,0 -13.777,-2.12 -18.426,-5.07 l -3.379,11.26 c 5.059,3.09 13.926,6.05 24.766,6.05 21.941,0 28.281,-13.93 28.281,-28.98 v -24.63 c 0,-6.19 0.274,-12.24 1.121,-16.46 h -15.625 l -1.257,7.59 h -0.422 c -4.082,-5.34 -11.258,-9.14 -20.262,-9.14 -13.789,0 -21.523,9.98 -21.523,20.4 z m -35.625,-18.85 h -17.032 l -25.468,68.52 h 18.718 l 11.106,-34.76 c 1.972,-6.05 3.379,-11.54 4.648,-17.17 h 0.43 c 1.258,5.63 2.812,10.99 4.637,17.17 l 10.976,34.76 h 18.156 z m -6.719,-226.558 -17.227,54.148 h -59.961 l -16.445,-54.148 h -30.625 l 59.344,184.478 h 36.718 l 59.7,-184.478 z m -208.887,6.934 c 0,-16.711 -13.625,-30.254 -30.32,-30.254 H 169.766 c -16.719,0 -30.34,13.543 -30.34,30.254 v 288.774 c 0,16.7 13.621,30.29 30.34,30.29 h 129.953 c 16.695,0 30.32,-13.59 30.32,-30.29 z m 115.242,314.454 h 22.09 l 30.813,-94.83 h -18.711 l -8.575,26.87 h -29.98 l -8.164,-26.87 h -17.871 z m 238.02,-26.31 v -68.52 h -17.293 v 68.52 z m -8.574,28.56 c 5.906,0 9.57,-4.08 9.707,-9.42 0,-5.07 -3.801,-9.29 -9.856,-9.29 -5.769,0 -9.558,4.22 -9.558,9.29 0,5.34 3.933,9.42 9.707,9.42 z m 102.324,-39.25 c -6.758,0 -13.789,-2.12 -18.43,-5.07 l -3.379,11.26 c 5.059,3.09 13.93,6.05 24.758,6.05 21.953,0 28.293,-13.93 28.293,-28.98 v -24.63 c 0,-6.19 0.27,-12.24 1.109,-16.46 h -15.613 l -1.262,7.59 h -0.418 c -4.082,-5.34 -11.261,-9.14 -20.265,-9.14 -13.797,0 -21.531,9.98 -21.531,20.4 0,17.17 15.332,26.03 40.664,25.89 v 1.13 c 0,4.49 -1.836,11.96 -13.926,11.96 z m 137.246,42.06 h 17.297 v -99.89 h -17.297 z m 70.926,-29.82 c 22.227,0 29.557,-18.29 29.557,-33.35 0,-3.24 -0.29,-5.77 -0.57,-7.32 h -45.87 c 0.418,-12.38 9.988,-17.72 21.101,-17.72 8.02,0 13.649,1.26 18.999,3.09 l 2.53,-11.82 c -5.91,-2.53 -14.068,-4.36 -23.919,-4.36 -22.227,0 -35.313,13.65 -35.313,34.61 0,19 11.532,36.87 33.485,36.87 z m 181.727,-1.55 0.84,-10.27 h 0.43 c 3.09,5.35 10.55,11.82 21.95,11.82 11.96,0 24.34,-7.74 24.34,-29.41 v -40.66 h -17.3 v 38.7 c 0,9.84 -3.67,17.3 -13.09,17.3 -6.89,0 -11.68,-4.93 -13.52,-10.13 -0.56,-1.41 -0.84,-3.52 -0.84,-5.49 v -40.38 h -17.3 v 48.11 c 0,7.89 -0.28,14.5 -0.57,20.41 z m 274.61,1.55 c 22.23,0 29.55,-18.29 29.55,-33.35 0,-3.24 -0.28,-5.77 -0.56,-7.32 h -45.87 c 0.42,-12.38 9.99,-17.72 21.1,-17.72 8.02,0 13.65,1.26 18.99,3.09 l 2.53,-11.82 c -5.9,-2.53 -14.06,-4.36 -23.91,-4.36 -22.23,0 -35.31,13.65 -35.31,34.61 0,19 11.53,36.87 33.48,36.87 z m -980.935,-6.76 c -1.836,5.78 -3.379,12.25 -4.785,17.73 h -0.293 c -1.399,-5.48 -2.949,-12.09 -4.5,-17.73 l -7.309,-23.36 h 24.336 z m 161.309,-43.05 c 0.41,1.26 0.41,2.53 0.41,3.8 v 9.42 c -12.239,0.14 -23.906,-2.39 -23.906,-12.8 0,-6.75 4.355,-9.85 9.843,-9.85 7.032,0 11.953,4.5 13.653,9.43 z m 792.336,-131.28 c -9.65,0 -17.49,-4.12 -23.54,-12.1 -4.92,-6.37 -7.87,-14.04 -8.76,-22.94 h 61.58 c 0.16,8.73 -1.71,16.27 -5.72,22.69 -5.13,8.18 -13,12.35 -23.56,12.35 z m -922.707,44.3 h -0.516 c -1.859,-7.84 -4.738,-19.41 -8.789,-34.76 l -15.332,-48.18 h 49.527 l -15.535,48.18 c -1.68,4.95 -4.816,16.54 -9.355,34.76 z m 305.468,-47.58 c -7.324,0 -13.867,-2.41 -19.824,-7.24 -5.93,-4.9 -9.824,-11.24 -11.66,-19.09 -0.91,-3.67 -1.336,-6.66 -1.336,-9.05 v -22.144 c 0,-9.687 2.918,-17.871 8.875,-24.531 5.918,-6.601 13.641,-9.949 23.086,-9.949 11.191,0 19.844,4.258 26.055,12.859 6.218,8.575 9.336,19.883 9.336,33.977 0,12.918 -2.942,23.618 -8.762,31.978 -6.434,8.73 -15.02,13.19 -25.77,13.19 z m 393.039,1.83 c -11.83,0 -20.87,-5.25 -27.04,-15.82 -5.35,-8.7 -7.97,-19.31 -7.97,-31.881 0,-12.239 2.62,-22.676 7.97,-31.399 6.32,-10.547 15.27,-15.8 26.82,-15.8 11.24,0 20.13,5.324 26.48,16.132 5.51,8.828 8.26,19.414 8.26,31.582 0,12.166 -2.64,22.666 -7.9,31.366 -6.29,10.57 -15.11,15.82 -26.62,15.82 z m -539.23,-1.83 c -7.285,0 -13.867,-2.41 -19.817,-7.24 -5.945,-4.9 -9.804,-11.24 -11.64,-19.09 -0.899,-3.67 -1.348,-6.66 -1.348,-9.05 v -22.144 c 0,-9.687 2.91,-17.871 8.879,-24.531 5.918,-6.601 13.641,-9.949 23.113,-9.949 11.106,0 19.836,4.258 26.028,12.859 6.203,8.575 9.277,19.883 9.277,33.977 0,12.918 -2.883,23.618 -8.73,31.978 -6.418,8.73 -14.981,13.19 -25.762,13.19 z M 157.852,966.16 h 153.757 v 227.41 H 157.852 Z m 76.867,-13.43 c -8.625,0 -15.656,-7.05 -15.656,-15.703 0,-8.632 7.031,-15.664 15.656,-15.664 8.66,0 15.672,7.032 15.672,15.664 0,8.653 -7.012,15.703 -15.672,15.703 z m -15.063,264.04 h 30.129 c 1.973,0 3.582,1.62 3.582,3.5 0,2 -1.609,3.61 -3.582,3.61 h -30.129 c -1.914,0 -3.554,-1.61 -3.554,-3.61 0,-1.88 1.64,-3.5 3.554,-3.5"
         style="fill:#4f4c4c;fill-opacity:1;fill-rule:nonzero;stroke:none"
         id="path16"
         inkscape:connector-curvature="0" /><path
         d="M 77.2344,1346.51 C 45.6758,1346.51 20,1320.83 20,1289.27 V 870.641 c 0,-31.512 25.6758,-57.149 57.2344,-57.149 H 1533.95 c 31.56,0 57.24,25.637 57.24,57.149 v 418.629 c 0,31.56 -25.68,57.24 -57.24,57.24 z M 1533.95,793.492 H 77.2344 C 34.6484,793.492 0,828.102 0,870.641 v 418.629 c 0,42.59 34.6484,77.24 77.2344,77.24 H 1533.95 c 42.59,0 77.24,-34.65 77.24,-77.24 V 870.641 c 0,-42.539 -34.65,-77.149 -77.24,-77.149"
         style="fill:#4f4c4c;fill-opacity:1;fill-rule:nonzero;stroke:none"
         id="path18"
         inkscape:connector-curvature="0" /><path
         d="m 2456.05,435.215 c -3.46,0 -6.39,-1.551 -8.8,-4.649 -2.41,-3.097 -3.62,-7.011 -3.62,-11.742 0,-4.918 1.27,-8.922 3.82,-12.008 2.54,-3.086 5.65,-4.628 9.34,-4.628 3.46,0 6.39,1.554 8.8,4.664 2.41,3.109 3.62,7.019 3.62,11.726 0,4.942 -1.27,8.949 -3.8,12.024 -2.53,3.074 -5.65,4.613 -9.36,4.613"
         style="fill:#4f4c4c;fill-opacity:1;fill-rule:nonzero;stroke:none"
         id="path20"
         inkscape:connector-curvature="0" /><path
         d="m 2524.69,434.965 c -1.02,0 -2.42,-0.106 -4.19,-0.317 0.24,-4.73 0.36,-9.675 0.36,-14.828 0,-5.656 0.11,-11.257 0.35,-16.816 1.54,-0.309 3.07,-0.461 4.61,-0.461 5.09,0 8.85,1.578 11.3,4.734 2.45,3.161 3.67,7.008 3.67,11.547 0,4.543 -1.32,8.367 -3.97,11.477 -2.65,3.109 -6.69,4.664 -12.13,4.664"
         style="fill:#4f4c4c;fill-opacity:1;fill-rule:nonzero;stroke:none"
         id="path22"
         inkscape:connector-curvature="0" /><path
         d="m 2640.84,435.391 c -1.68,0 -3.45,-0.176 -5.32,-0.532 0.26,-4.468 0.39,-9.531 0.39,-15.183 0.59,-0.047 1.28,-0.071 2.06,-0.071 8.63,0 12.95,2.731 12.95,8.196 0,5.058 -3.36,7.59 -10.08,7.59"
         style="fill:#4f4c4c;fill-opacity:1;fill-rule:nonzero;stroke:none"
         id="path24"
         inkscape:connector-curvature="0" /><path
         d="m 2595.66,435.5 c 0,-0.926 -2.09,-7.523 -6.27,-19.797 h 12.91 c -4.04,12.203 -6.07,18.801 -6.07,19.797 h -0.57"
         style="fill:#4f4c4c;fill-opacity:1;fill-rule:nonzero;stroke:none"
         id="path26"
         inkscape:connector-curvature="0" /><path
         d="m 2260.56,435.5 c 0,-0.926 -2.1,-7.523 -6.28,-19.797 h 12.91 c -4.04,12.203 -6.07,18.801 -6.07,19.797 h -0.56"
         style="fill:#4f4c4c;fill-opacity:1;fill-rule:nonzero;stroke:none"
         id="path28"
         inkscape:connector-curvature="0" /><path
         d="m 2405.76,435.355 c -2.22,0 -4.18,-0.164 -5.88,-0.496 0.26,-3.668 0.39,-8.441 0.39,-14.332 1.3,-0.047 2.4,-0.07 3.3,-0.07 7.52,0 11.28,2.613 11.28,7.84 0,4.707 -3.03,7.058 -9.09,7.058"
         style="fill:#4f4c4c;fill-opacity:1;fill-rule:nonzero;stroke:none"
         id="path30"
         inkscape:connector-curvature="0" /><path
         d="m 2354.95,434.965 c -1.02,0 -2.41,-0.106 -4.19,-0.317 0.24,-4.73 0.36,-9.675 0.36,-14.828 0,-5.656 0.12,-11.257 0.35,-16.816 1.54,-0.309 3.08,-0.461 4.61,-0.461 5.09,0 8.86,1.578 11.3,4.734 2.45,3.161 3.67,7.008 3.67,11.547 0,4.543 -1.32,8.367 -3.97,11.477 -2.65,3.109 -6.69,4.664 -12.13,4.664"
         style="fill:#4f4c4c;fill-opacity:1;fill-rule:nonzero;stroke:none"
         id="path32"
         inkscape:connector-curvature="0" /><path
         d="m 2749.23,435.215 c -3.46,0 -6.39,-1.551 -8.8,-4.649 -2.41,-3.097 -3.62,-7.011 -3.62,-11.742 0,-4.918 1.27,-8.922 3.82,-12.008 2.54,-3.086 5.65,-4.628 9.34,-4.628 3.46,0 6.39,1.554 8.8,4.664 2.41,3.109 3.62,7.019 3.62,11.726 0,4.942 -1.27,8.949 -3.8,12.024 -2.53,3.074 -5.65,4.613 -9.36,4.613"
         style="fill:#4f4c4c;fill-opacity:1;fill-rule:nonzero;stroke:none"
         id="path34"
         inkscape:connector-curvature="0" /><path
         d="m 2683.39,435.391 c -1.68,0 -3.46,-0.176 -5.32,-0.532 0.26,-4.468 0.39,-9.531 0.39,-15.183 0.59,-0.047 1.27,-0.071 2.06,-0.071 8.63,0 12.94,2.731 12.94,8.196 0,5.058 -3.35,7.59 -10.07,7.59"
         style="fill:#4f4c4c;fill-opacity:1;fill-rule:nonzero;stroke:none"
         id="path36"
         inkscape:connector-curvature="0" /><path
         d="m 2590.9,269 c -9.94,0 -18.54,-3.711 -25.79,-11.121 -7.27,-7.418 -10.89,-17.231 -10.89,-29.457 0,-12.231 3.62,-22.043 10.89,-29.453 7.25,-7.418 15.85,-11.129 25.79,-11.129 9.93,0 18.52,3.711 25.79,11.129 7.26,7.41 10.89,17.222 10.89,29.453 0,12.226 -3.63,22.039 -10.89,29.457 -7.27,7.41 -15.86,11.121 -25.79,11.121"
         style="fill:#4f4c4c;fill-opacity:1;fill-rule:nonzero;stroke:none"
         id="path38"
         inkscape:connector-curvature="0" /><path
         d="m 2468.25,269 c -9.94,0 -18.53,-3.711 -25.79,-11.121 -7.26,-7.418 -10.89,-17.231 -10.89,-29.457 0,-12.231 3.63,-22.043 10.89,-29.453 7.26,-7.418 15.85,-11.129 25.79,-11.129 9.93,0 18.53,3.711 25.79,11.129 7.26,7.41 10.89,17.222 10.89,29.453 0,12.226 -3.63,22.039 -10.89,29.457 -7.26,7.41 -15.86,11.121 -25.79,11.121"
         style="fill:#4f4c4c;fill-opacity:1;fill-rule:nonzero;stroke:none"
         id="path40"
         inkscape:connector-curvature="0" /><path
         d="m 3050.29,316.219 h -35.3 V 258.91 h 35.3 c 8.86,0 15.97,2.988 21.32,8.942 5.35,5.957 8.03,12.527 8.03,19.718 0,7.18 -2.68,13.75 -8.03,19.711 -5.35,5.957 -12.46,8.938 -21.32,8.938"
         style="fill:#4f4c4c;fill-opacity:1;fill-rule:nonzero;stroke:none"
         id="path42"
         inkscape:connector-curvature="0" /><path
         d="m 3178.2,221.32 c -5.19,-4.441 -7.79,-9.629 -7.79,-15.601 0,-5.489 2.36,-9.848 7.11,-13.059 4.73,-3.211 10.16,-4.82 16.27,-4.82 8.71,0 16.62,3.25 23.73,9.75 7.11,6.492 10.65,14.172 10.65,23.039 -5.95,4.891 -14.89,7.332 -26.81,7.332 -10.25,0 -17.96,-2.223 -23.16,-6.641"
         style="fill:#4f4c4c;fill-opacity:1;fill-rule:nonzero;stroke:none"
         id="path44"
         inkscape:connector-curvature="0" /><path
         d="m 2876.52,269 c -7.79,0 -14.55,-2.449 -20.28,-7.34 -5.73,-4.89 -9.67,-11.461 -11.81,-19.719 h 65.11 c -0.46,6.43 -3.41,12.528 -8.83,18.34 -5.43,5.809 -13.49,8.719 -24.19,8.719"
         style="fill:#4f4c4c;fill-opacity:1;fill-rule:nonzero;stroke:none"
         id="path46"
         inkscape:connector-curvature="0" /><path
         d="m 2712.63,269 c -9.79,0 -18.2,-3.711 -25.22,-11.121 -7.03,-7.418 -10.55,-17.231 -10.55,-29.457 0,-12.231 3.52,-22.043 10.55,-29.453 7.02,-7.418 15.43,-11.129 25.22,-11.129 9.93,0 18.38,3.672 25.33,11.012 6.95,7.328 10.43,17.199 10.43,29.57 0,12.379 -3.48,22.238 -10.43,29.566 -6.95,7.344 -15.4,11.012 -25.33,11.012"
         style="fill:#4f4c4c;fill-opacity:1;fill-rule:nonzero;stroke:none"
         id="path48"
         inkscape:connector-curvature="0" /><path
         d="m 3294.21,122.75 h -21.78 l 26.13,56.621 -46.3,105.219 h 22.92 l 33.47,-80.699 h 0.46 l 32.55,80.699 h 22.92 z m -45.86,49.512 h -20.18 v 15.578 h -0.9 c -8.41,-12.828 -20.72,-19.25 -36.92,-19.25 -11.92,0 -21.89,3.441 -29.91,10.32 -8.03,6.871 -12.04,15.961 -12.04,27.27 0,12.23 4.73,21.82 14.22,28.769 9.47,6.961 21.16,10.43 35.07,10.43 12.38,0 22.54,-2.277 30.48,-6.867 v 3.207 c 0,8.25 -2.82,14.863 -8.47,19.82 -5.66,4.973 -12.61,7.461 -20.86,7.461 -6.12,0 -11.66,-1.461 -16.62,-4.359 -4.97,-2.903 -8.37,-6.879 -10.21,-11.911 l -19.26,8.25 c 2.6,6.719 7.72,12.95 15.36,18.68 7.64,5.731 17.73,8.59 30.27,8.59 14.36,0 26.28,-4.211 35.76,-12.602 9.47,-8.41 14.21,-20.257 14.21,-35.539 z m -112.32,0 h -21.09 v 164.136 h 21.09 z m -50.09,80.347 c -10.17,-9.25 -22.2,-13.871 -36.11,-13.871 h -34.84 v -66.476 h -21.09 v 164.136 h 55.93 c 13.91,0 25.94,-4.628 36.11,-13.867 10.16,-9.261 15.24,-20.91 15.24,-34.961 0,-14.058 -5.08,-25.718 -15.24,-34.961 z M 2931.78,224.52 h -88.72 c 0.6,-11.309 4.39,-20.25 11.34,-26.809 6.96,-6.582 15.09,-9.871 24.42,-9.871 15.13,0 25.37,6.43 30.72,19.262 l 18.79,-7.793 c -3.66,-8.707 -9.71,-16.02 -18.11,-21.899 -8.4,-5.879 -18.72,-8.82 -30.94,-8.82 -16.97,0 -30.76,5.648 -41.38,16.969 -10.62,11.3 -15.94,25.589 -15.94,42.863 0,16.359 5.16,30.41 15.48,42.187 10.31,11.75 23.5,17.641 39.54,17.641 16.66,0 29.99,-5.43 40,-16.281 10.01,-10.848 15.02,-25.367 15.02,-43.547 z m -111.52,171.14 h -8.76 c 0,0.969 -3.25,6.09 -9.75,15.36 -6.82,9.769 -10.7,16.449 -11.64,20.043 h -0.57 c 0.59,-5.176 0.89,-9.86 0.89,-14.047 0,-5.84 0.16,-12.961 0.5,-21.356 h -8.73 c 0.35,7.332 0.53,15.383 0.53,24.16 0,8.629 -0.18,15.973 -0.53,22.028 h 10.53 c 0,-1.254 2.93,-6.254 8.77,-15.004 6.22,-9.297 9.79,-15.598 10.71,-18.91 h 0.53 c -0.57,5.273 -0.85,10.004 -0.85,14.191 0,6.406 -0.16,12.984 -0.5,19.723 h 8.87 c -0.33,-5.868 -0.49,-13.207 -0.49,-22.028 0,-8.894 0.16,-16.949 0.49,-24.16 z m -10.67,-223.398 h -21.08 v 164.136 h 21.08 z m -44.08,229.289 c -4.45,-4.781 -9.95,-7.168 -16.5,-7.168 -6.24,0 -11.47,2.195 -15.68,6.582 -4.2,4.387 -6.31,9.961 -6.31,16.726 0,7.258 2.22,13.278 6.67,18.055 4.45,4.777 9.94,7.168 16.49,7.168 6.25,0 11.48,-2.191 15.68,-6.562 4.21,-4.379 6.32,-9.957 6.32,-16.747 0,-7.261 -2.22,-13.281 -6.67,-18.054 z m 3.05,-223.563 c 0,-19.258 -5.58,-33.886 -16.73,-43.906 -11.16,-10 -24.76,-15.012 -40.8,-15.012 -13.31,0 -24.16,3.321 -32.56,9.969 -8.41,6.652 -14.45,14.262 -18.11,22.82 l 19.26,8.012 c 2.14,-6.101 6.07,-11.23 11.81,-15.351 5.72,-4.129 12.25,-6.192 19.6,-6.192 11.61,0 20.74,3.481 27.39,10.434 6.65,6.949 9.97,16.386 9.97,28.308 v 10.77 h -0.92 c -3.67,-5.5 -8.87,-10.078 -15.59,-13.75 -6.72,-3.668 -14.29,-5.5 -22.69,-5.5 -14.52,0 -27.05,5.73 -37.6,17.191 -10.55,11.469 -15.82,25.68 -15.82,42.641 0,16.957 5.27,31.18 15.82,42.648 10.55,11.45 23.08,17.18 37.6,17.18 8.4,0 15.97,-1.828 22.69,-5.488 6.72,-3.68 11.92,-8.262 15.59,-13.762 h 0.92 v 15.59 h 20.17 z m -130.24,235.196 c -1.11,0 -1.9,0.023 -2.37,0.074 0,-4.449 0.13,-10.313 0.39,-17.598 h -9.97 c 0.3,6.832 0.46,14.887 0.46,24.16 0,8.512 -0.16,15.856 -0.46,22.028 h 6.17 c 0.87,0 2.55,0.035 5.04,0.105 2.48,0.074 4.63,0.11 6.45,0.11 4.5,0 8.29,-1.02 11.39,-3.051 3.1,-2.035 4.65,-5.121 4.65,-9.258 0,-5.656 -2.1,-9.828 -6.3,-12.524 -4.19,-2.699 -9.35,-4.046 -15.45,-4.046 z m -5.93,-227.512 c -10.86,-11.391 -24.69,-17.082 -41.49,-17.082 -16.82,0 -30.65,5.691 -41.5,17.082 -10.85,11.379 -16.28,25.629 -16.28,42.75 0,17.117 5.43,31.367 16.28,42.75 10.85,11.387 24.68,17.078 41.5,17.078 16.8,0 30.63,-5.691 41.49,-17.078 10.85,-11.383 16.27,-25.633 16.27,-42.75 0,-17.121 -5.42,-31.371 -16.27,-42.75 z m -122.64,0 c -10.86,-11.391 -24.69,-17.082 -41.5,-17.082 -16.81,0 -30.64,5.691 -41.49,17.082 -10.85,11.379 -16.28,25.629 -16.28,42.75 0,17.117 5.43,31.367 16.28,42.75 10.85,11.387 24.68,17.078 41.49,17.078 16.81,0 30.64,-5.691 41.5,-17.078 10.85,-11.383 16.27,-25.633 16.27,-42.75 0,-17.121 -5.42,-31.371 -16.27,-42.75 z M 2400.3,414.07 c 0,-6.078 0.11,-12.215 0.32,-18.41 h -9.86 c 0.31,7.141 0.46,15.195 0.46,24.16 0,8.606 -0.15,15.95 -0.46,22.028 h 6.14 c 0.71,0 2.19,0.035 4.45,0.105 2.26,0.074 4.34,0.11 6.26,0.11 10.85,0 16.28,-3.715 16.28,-11.141 0,-5.887 -3.1,-9.992 -9.29,-12.309 v -0.535 c 2.39,-0.66 4.48,-2.523 6.28,-5.586 1.79,-3.062 4.22,-8.672 7.27,-16.832 h -10.5 c -2.75,8.371 -4.85,13.539 -6.32,15.504 -1.46,1.961 -3.83,2.945 -7.09,2.945 -1.37,0 -2.69,-0.015 -3.94,-0.039 z m -18.93,-221.179 c -15.44,-16.2 -35.54,-24.301 -60.3,-24.301 -23.69,0 -43.82,8.211 -60.4,24.64 -16.59,16.43 -24.87,36.801 -24.87,61.098 0,24.293 8.28,44.66 24.87,61.094 16.58,16.43 36.71,24.637 60.4,24.637 11.77,0 23,-2.289 33.71,-6.879 10.69,-4.578 19.25,-10.7 25.67,-18.34 l -14.44,-14.442 c -10.85,12.993 -25.83,19.493 -44.94,19.493 -17.27,0 -32.2,-6.071 -44.81,-18.231 -12.61,-12.148 -18.92,-27.93 -18.92,-47.332 0,-19.418 6.31,-35.187 18.92,-47.348 12.61,-12.14 27.54,-18.218 44.81,-18.218 18.34,0 33.63,6.109 45.85,18.34 7.95,7.949 12.53,19.027 13.75,33.238 h -59.6 v 19.719 h 79.55 c 0.77,-4.289 1.15,-8.411 1.15,-12.379 0,-22.918 -6.8,-41.192 -20.4,-54.789 z m -212.23,49.597 c -3.12,-2.297 -6.56,-4.199 -9.97,-6.078 -20.23,-11.191 -40.51,-22.262 -60.7,-33.519 -2.72,-1.52 -4.34,-1.45 -6.59,0.879 -14.37,14.839 -28.87,29.558 -43.45,44.199 -2.12,2.133 -2.18,3.301 0,5.441 16.98,16.731 33.87,33.551 50.69,50.449 1.98,2 3.4,2.223 5.87,0.821 19.98,-11.321 40.06,-22.489 60.09,-33.719 6.2,-3.473 11.02,-7.961 11.29,-15.313 -0.22,-5.898 -3.01,-10.046 -7.23,-13.16 z m -87.18,-48.668 c -66.91,-36.621 -133.76,-73.351 -200.62,-110.0505 -1.1,-0.6093 -2.13,-1.5976 -2.7,-1.9687 52.12,52.6792 104.27,105.3202 156.27,158.1212 3.22,3.277 4.73,2.84 7.62,-0.172 13.21,-13.75 26.61,-27.32 40.07,-40.82 2.37,-2.379 2.57,-3.352 -0.64,-5.11 z M 1850.7,79.9297 c -6.01,4.6211 -8.31,10.8008 -8.3,18.1719 0.01,31.0464 -0.05,62.0974 -0.07,93.1484 -0.01,21.961 0,43.91 0,65.859 0.03,0 0.06,0 0.09,0 0,52.43 0.02,104.86 -0.03,157.286 0,6.433 1.25,12.308 5.81,17.168 1.77,1.89 3.04,2.394 5.22,0.179 35.27,-35.996 70.63,-71.914 105.99,-107.832 22.89,-23.262 45.77,-46.531 68.76,-69.699 2.23,-2.242 2.43,-3.43 0.07,-5.781 -56.23,-55.899 -112.41,-111.86 -168.43,-167.9612 -3.43,-3.4297 -5.83,-3.0704 -9.11,-0.5391 z m 22.1,354.7773 c 71.8,-40.234 143.59,-80.488 215.44,-120.637 3.3,-1.84 3.23,-2.871 0.68,-5.379 -16.06,-15.8 -31.99,-31.73 -47.91,-47.671 -1.72,-1.719 -2.76,-2.711 -5.07,-0.36 -57.12,58.262 -114.33,116.43 -171.52,174.625 -0.48,0.488 -0.88,1.063 -1.85,2.262 4.29,0.039 7.31,-1.207 10.23,-2.84 z m 374.08,-16.344 c 5.52,14.215 8.28,22.043 8.28,23.485 h 13.41 c 0,-1.348 2.5,-9.063 7.51,-23.149 5,-14.082 7.5,-21.761 7.5,-23.039 h -11.35 c 0,1.563 -1.08,5.981 -3.23,13.27 h -16.39 c -2.22,-7.168 -3.33,-11.59 -3.33,-13.27 h -10.68 c 0,0.922 2.76,8.488 8.28,22.703 z m 44.38,23.485 h 10.53 c 0,-1.254 2.92,-6.254 8.77,-15.004 6.22,-9.297 9.79,-15.598 10.71,-18.91 h 0.53 c -0.57,5.273 -0.85,10.004 -0.85,14.191 0,6.406 -0.17,12.984 -0.5,19.723 h 8.87 c -0.33,-5.868 -0.5,-13.207 -0.5,-22.028 0,-8.894 0.17,-16.949 0.5,-24.16 h -8.76 c 0,0.969 -3.25,6.09 -9.76,15.36 -6.81,9.769 -10.69,16.449 -11.63,20.043 h -0.57 c 0.59,-5.176 0.89,-9.86 0.89,-14.047 0,-5.84 0.16,-12.961 0.49,-21.356 h -8.72 c 0.35,7.332 0.53,15.383 0.53,24.16 0,8.629 -0.18,15.973 -0.53,22.028 z m 50.46,0 h 6.21 c 1.01,0 2.53,0.035 4.54,0.105 2,0.074 3.32,0.11 3.93,0.11 8.54,0 14.73,-2.129 18.57,-6.387 3.85,-4.258 5.77,-9.367 5.77,-15.324 0,-6.719 -2.15,-12.582 -6.46,-17.594 -4.3,-5.02 -10.33,-7.524 -18.09,-7.524 -3.5,0 -8.32,0.145 -14.47,0.426 0.3,7.141 0.46,15.195 0.46,24.16 0,8.606 -0.16,15.95 -0.46,22.028 z m 98.79,-6.102 c 4.45,4.777 9.94,7.168 16.5,7.168 6.24,0 11.47,-2.191 15.68,-6.562 4.2,-4.379 6.31,-9.957 6.31,-16.747 0,-7.261 -2.22,-13.281 -6.67,-18.054 -4.45,-4.781 -9.94,-7.168 -16.49,-7.168 -6.25,0 -11.48,2.195 -15.68,6.582 -4.21,4.387 -6.32,9.961 -6.32,16.726 0,7.258 2.22,13.278 6.67,18.055 z m 48.51,6.102 h 10.04 c -0.31,-5.957 -0.46,-13.301 -0.46,-22.028 0,-8.918 0.15,-16.972 0.46,-24.16 h -10.04 c 0.31,7.332 0.46,15.383 0.46,24.16 0,8.629 -0.15,15.973 -0.46,22.028 z m 22.43,0 h 6.21 c 1.02,0 2.53,0.035 4.54,0.105 2.01,0.074 3.33,0.11 3.94,0.11 8.54,0 14.73,-2.129 18.57,-6.387 3.84,-4.258 5.77,-9.367 5.77,-15.324 0,-6.719 -2.16,-12.582 -6.46,-17.594 -4.3,-5.02 -10.34,-7.524 -18.09,-7.524 -3.5,0 -8.33,0.145 -14.48,0.426 0.31,7.141 0.47,15.195 0.47,24.16 0,8.606 -0.16,15.95 -0.47,22.028 z m 70.54,-23.485 c 5.52,14.215 8.28,22.043 8.28,23.485 h 13.41 c 0,-1.348 2.5,-9.063 7.5,-23.149 5.01,-14.082 7.51,-21.761 7.51,-23.039 h -11.35 c 0,1.563 -1.08,5.981 -3.23,13.27 h -16.39 c -2.22,-7.168 -3.34,-11.59 -3.34,-13.27 h -10.67 c 0,0.922 2.76,8.488 8.28,22.703 z m 86.93,23.485 h 6.17 c 0.87,0 2.55,0.035 5.03,0.105 2.49,0.074 4.64,0.11 6.46,0.11 4.49,0 8.29,-1.02 11.39,-3.051 3.1,-2.035 4.65,-5.121 4.65,-9.258 0,-5.656 -2.1,-9.828 -6.3,-12.524 -4.2,-2.699 -9.35,-4.046 -15.45,-4.046 -1.11,0 -1.9,0.023 -2.38,0.074 0,-4.449 0.13,-10.313 0.39,-17.598 h -9.96 c 0.3,6.832 0.46,14.887 0.46,24.16 0,8.512 -0.16,15.856 -0.46,22.028 z M 3340.07,552.77 H 1800.3 c -41.23,0 -74.67,-33.434 -74.67,-74.665 V 74.9219 c 0,-41.2305 33.44,-74.6719 74.67,-74.6719 h 1539.77 c 41.23,0 74.65,33.4414 74.65,74.6719 V 478.105 c 0,41.231 -33.42,74.665 -74.65,74.665"
         style="fill:#4f4c4c;fill-opacity:1;fill-rule:nonzero;stroke:none"
         id="path50"
         inkscape:connector-curvature="0" /><path
         d="m 1800.3,1356.51 c -35.65,0 -64.67,-29.01 -64.67,-64.67 V 888.656 c 0,-35.656 29.02,-64.672 64.67,-64.672 h 1539.77 c 35.65,0 64.66,29.016 64.66,64.672 v 403.184 c 0,35.66 -29.01,64.67 -64.66,64.67 z M 3340.07,803.984 H 1800.3 c -46.69,0 -84.67,37.985 -84.67,84.672 v 403.184 c 0,46.69 37.98,84.67 84.67,84.67 h 1539.77 c 46.68,0 84.66,-37.98 84.66,-84.67 V 888.656 c 0,-46.687 -37.98,-84.672 -84.66,-84.672"
         style="fill:#4f4c4c;fill-opacity:1;fill-rule:nonzero;stroke:none"
         id="path52"
         inkscape:connector-curvature="0" /><path
         d="m 2267.19,1229.44 c -4.04,12.2 -6.07,18.8 -6.07,19.8 h -0.56 c 0,-0.92 -2.1,-7.52 -6.28,-19.8 z m 16.39,-20.04 h -11.35 c 0,1.56 -1.08,5.98 -3.23,13.27 h -16.39 c -2.22,-7.17 -3.33,-11.59 -3.33,-13.27 h -10.68 c 0,0.92 2.76,8.49 8.28,22.7 5.52,14.22 8.28,22.04 8.28,23.49 h 13.41 c 0,-1.35 2.5,-9.07 7.51,-23.15 5,-14.08 7.5,-21.76 7.5,-23.04"
         style="fill:#505156;fill-opacity:1;fill-rule:nonzero;stroke:none"
         id="path54"
         inkscape:connector-curvature="0" /><path
         d="m 2329.32,1209.4 h -8.76 c 0,0.97 -3.25,6.09 -9.76,15.36 -6.81,9.77 -10.69,16.45 -11.63,20.04 h -0.57 c 0.59,-5.17 0.89,-9.86 0.89,-14.05 0,-5.84 0.16,-12.96 0.49,-21.35 h -8.72 c 0.35,7.33 0.53,15.38 0.53,24.16 0,8.63 -0.18,15.97 -0.53,22.03 h 10.53 c 0,-1.26 2.92,-6.26 8.77,-15.01 6.22,-9.29 9.79,-15.6 10.71,-18.91 h 0.53 c -0.57,5.28 -0.85,10.01 -0.85,14.19 0,6.41 -0.17,12.99 -0.5,19.73 h 8.87 c -0.33,-5.87 -0.49,-13.21 -0.49,-22.03 0,-8.9 0.16,-16.95 0.49,-24.16"
         style="fill:#505156;fill-opacity:1;fill-rule:nonzero;stroke:none"
         id="path56"
         inkscape:connector-curvature="0" /><path
         d="m 2371.05,1232.56 c 0,4.55 -1.32,8.37 -3.97,11.48 -2.65,3.11 -6.69,4.66 -12.13,4.66 -1.02,0 -2.41,-0.1 -4.19,-0.31 0.24,-4.73 0.36,-9.68 0.36,-14.83 0,-5.66 0.12,-11.26 0.35,-16.82 1.54,-0.31 3.08,-0.46 4.61,-0.46 5.09,0 8.86,1.58 11.3,4.74 2.45,3.16 3.67,7 3.67,11.54 z m 9.69,1.53 c 0,-6.72 -2.15,-12.58 -6.46,-17.6 -4.3,-5.01 -10.33,-7.52 -18.09,-7.52 -3.5,0 -8.32,0.14 -14.47,0.43 0.3,7.14 0.46,15.19 0.46,24.16 0,8.6 -0.16,15.95 -0.46,22.03 h 6.2 c 1.02,0 2.53,0.03 4.55,0.1 2,0.08 3.32,0.11 3.93,0.11 8.54,0 14.73,-2.13 18.57,-6.39 3.85,-4.25 5.77,-9.36 5.77,-15.32"
         style="fill:#505156;fill-opacity:1;fill-rule:nonzero;stroke:none"
         id="path58"
         inkscape:connector-curvature="0" /><path
         d="m 2414.85,1242.04 c 0,4.7 -3.03,7.05 -9.09,7.05 -2.22,0 -4.18,-0.16 -5.88,-0.49 0.26,-3.67 0.39,-8.44 0.39,-14.33 1.3,-0.05 2.4,-0.07 3.3,-0.07 7.52,0 11.28,2.61 11.28,7.84 z m 13.3,-32.64 h -10.5 c -2.75,8.37 -4.85,13.54 -6.32,15.5 -1.46,1.96 -3.83,2.95 -7.09,2.95 -1.37,0 -2.69,-0.02 -3.94,-0.04 0,-6.08 0.11,-12.22 0.32,-18.41 h -9.86 c 0.31,7.14 0.46,15.19 0.46,24.16 0,8.6 -0.15,15.95 -0.46,22.03 h 6.14 c 0.71,0 2.19,0.03 4.45,0.1 2.26,0.08 4.34,0.11 6.26,0.11 10.85,0 16.28,-3.71 16.28,-11.14 0,-5.89 -3.1,-9.99 -9.29,-12.31 v -0.53 c 2.39,-0.66 4.48,-2.53 6.28,-5.59 1.79,-3.06 4.22,-8.67 7.27,-16.83"
         style="fill:#505156;fill-opacity:1;fill-rule:nonzero;stroke:none"
         id="path60"
         inkscape:connector-curvature="0" /><path
         d="m 2469.21,1232.32 c 0,4.94 -1.27,8.95 -3.8,12.02 -2.53,3.07 -5.65,4.61 -9.36,4.61 -3.46,0 -6.39,-1.55 -8.8,-4.65 -2.41,-3.09 -3.62,-7.01 -3.62,-11.74 0,-4.92 1.27,-8.92 3.82,-12.01 2.54,-3.08 5.65,-4.62 9.34,-4.62 3.46,0 6.39,1.55 8.8,4.66 2.41,3.11 3.62,7.02 3.62,11.73 z m 9.79,1.02 c 0,-7.26 -2.22,-13.28 -6.67,-18.05 -4.45,-4.78 -9.94,-7.17 -16.49,-7.17 -6.25,0 -11.48,2.2 -15.68,6.58 -4.21,4.39 -6.32,9.96 -6.32,16.73 0,7.26 2.22,13.28 6.67,18.05 4.45,4.78 9.94,7.17 16.5,7.17 6.24,0 11.47,-2.19 15.68,-6.56 4.2,-4.38 6.31,-9.96 6.31,-16.75"
         style="fill:#505156;fill-opacity:1;fill-rule:nonzero;stroke:none"
         id="path62"
         inkscape:connector-curvature="0" /><path
         d="m 2499.06,1209.4 h -10.04 c 0.31,7.33 0.46,15.38 0.46,24.16 0,8.63 -0.15,15.97 -0.46,22.03 h 10.04 c -0.31,-5.96 -0.46,-13.3 -0.46,-22.03 0,-8.92 0.15,-16.97 0.46,-24.16"
         style="fill:#505156;fill-opacity:1;fill-rule:nonzero;stroke:none"
         id="path64"
         inkscape:connector-curvature="0" /><path
         d="m 2540.79,1232.56 c 0,4.55 -1.32,8.37 -3.97,11.48 -2.65,3.11 -6.69,4.66 -12.13,4.66 -1.02,0 -2.42,-0.1 -4.19,-0.31 0.24,-4.73 0.36,-9.68 0.36,-14.83 0,-5.66 0.11,-11.26 0.35,-16.82 1.54,-0.31 3.07,-0.46 4.61,-0.46 5.09,0 8.85,1.58 11.3,4.74 2.45,3.16 3.67,7 3.67,11.54 z m 9.69,1.53 c 0,-6.72 -2.16,-12.58 -6.46,-17.6 -4.3,-5.01 -10.34,-7.52 -18.09,-7.52 -3.5,0 -8.33,0.14 -14.48,0.43 0.31,7.14 0.47,15.19 0.47,24.16 0,8.6 -0.16,15.95 -0.47,22.03 h 6.21 c 1.02,0 2.53,0.03 4.54,0.1 2.01,0.08 3.33,0.11 3.94,0.11 8.54,0 14.73,-2.13 18.57,-6.39 3.84,-4.25 5.77,-9.36 5.77,-15.32"
         style="fill:#505156;fill-opacity:1;fill-rule:nonzero;stroke:none"
         id="path66"
         inkscape:connector-curvature="0" /><path
         d="m 2602.3,1229.44 c -4.04,12.2 -6.07,18.8 -6.07,19.8 h -0.57 c 0,-0.92 -2.09,-7.52 -6.27,-19.8 z m 16.39,-20.04 h -11.35 c 0,1.56 -1.08,5.98 -3.23,13.27 h -16.39 c -2.22,-7.17 -3.34,-11.59 -3.34,-13.27 h -10.67 c 0,0.92 2.76,8.49 8.28,22.7 5.52,14.22 8.28,22.04 8.28,23.49 h 13.41 c 0,-1.35 2.5,-9.07 7.51,-23.15 5,-14.08 7.5,-21.76 7.5,-23.04"
         style="fill:#505156;fill-opacity:1;fill-rule:nonzero;stroke:none"
         id="path68"
         inkscape:connector-curvature="0" /><path
         d="m 2650.92,1241.54 c 0,5.06 -3.36,7.59 -10.08,7.59 -1.68,0 -3.45,-0.18 -5.32,-0.53 0.26,-4.47 0.39,-9.53 0.39,-15.19 0.59,-0.04 1.28,-0.07 2.06,-0.07 8.63,0 12.95,2.73 12.95,8.2 z m 9.15,1.95 c 0,-5.65 -2.1,-9.83 -6.3,-12.52 -4.19,-2.7 -9.34,-4.04 -15.45,-4.04 -1.11,0 -1.9,0.02 -2.37,0.06 0,-4.44 0.13,-10.31 0.39,-17.59 h -9.97 c 0.3,6.83 0.46,14.89 0.46,24.16 0,8.51 -0.16,15.85 -0.46,22.03 h 6.17 c 0.87,0 2.56,0.03 5.04,0.1 2.48,0.08 4.63,0.11 6.45,0.11 4.5,0 8.29,-1.02 11.39,-3.05 3.1,-2.04 4.65,-5.12 4.65,-9.26"
         style="fill:#505156;fill-opacity:1;fill-rule:nonzero;stroke:none"
         id="path70"
         inkscape:connector-curvature="0" /><path
         d="m 2693.46,1241.54 c 0,5.06 -3.35,7.59 -10.07,7.59 -1.68,0 -3.46,-0.18 -5.32,-0.53 0.26,-4.47 0.39,-9.53 0.39,-15.19 0.59,-0.04 1.28,-0.07 2.06,-0.07 8.63,0 12.94,2.73 12.94,8.2 z m 9.16,1.95 c 0,-5.65 -2.1,-9.83 -6.3,-12.52 -4.2,-2.7 -9.35,-4.04 -15.45,-4.04 -1.11,0 -1.9,0.02 -2.38,0.06 0,-4.44 0.13,-10.31 0.39,-17.59 h -9.96 c 0.3,6.83 0.46,14.89 0.46,24.16 0,8.51 -0.16,15.85 -0.46,22.03 h 6.17 c 0.87,0 2.55,0.03 5.04,0.1 2.48,0.08 4.63,0.11 6.45,0.11 4.49,0 8.29,-1.02 11.39,-3.05 3.1,-2.04 4.65,-5.12 4.65,-9.26"
         style="fill:#505156;fill-opacity:1;fill-rule:nonzero;stroke:none"
         id="path72"
         inkscape:connector-curvature="0" /><path
         d="m 2762.39,1232.32 c 0,4.94 -1.27,8.95 -3.8,12.02 -2.53,3.07 -5.65,4.61 -9.36,4.61 -3.46,0 -6.39,-1.55 -8.8,-4.65 -2.41,-3.09 -3.62,-7.01 -3.62,-11.74 0,-4.92 1.27,-8.92 3.82,-12.01 2.54,-3.08 5.65,-4.62 9.34,-4.62 3.46,0 6.39,1.55 8.8,4.66 2.41,3.11 3.62,7.02 3.62,11.73 z m 9.79,1.02 c 0,-7.26 -2.22,-13.28 -6.67,-18.05 -4.45,-4.78 -9.95,-7.17 -16.5,-7.17 -6.24,0 -11.47,2.2 -15.68,6.58 -4.2,4.39 -6.31,9.96 -6.31,16.73 0,7.26 2.22,13.28 6.67,18.05 4.45,4.78 9.94,7.17 16.49,7.17 6.25,0 11.48,-2.19 15.68,-6.56 4.21,-4.38 6.32,-9.96 6.32,-16.75"
         style="fill:#505156;fill-opacity:1;fill-rule:nonzero;stroke:none"
         id="path74"
         inkscape:connector-curvature="0" /><path
         d="m 2820.26,1209.4 h -8.76 c 0,0.97 -3.25,6.09 -9.75,15.36 -6.82,9.77 -10.7,16.45 -11.64,20.04 h -0.57 c 0.59,-5.17 0.89,-9.86 0.89,-14.05 0,-5.84 0.16,-12.96 0.5,-21.35 h -8.73 c 0.35,7.33 0.53,15.38 0.53,24.16 0,8.63 -0.18,15.97 -0.53,22.03 h 10.53 c 0,-1.26 2.93,-6.26 8.77,-15.01 6.22,-9.29 9.79,-15.6 10.71,-18.91 h 0.53 c -0.57,5.28 -0.85,10.01 -0.85,14.19 0,6.41 -0.16,12.99 -0.5,19.73 h 8.87 c -0.33,-5.87 -0.49,-13.21 -0.49,-22.03 0,-8.9 0.16,-16.95 0.49,-24.16"
         style="fill:#505156;fill-opacity:1;fill-rule:nonzero;stroke:none"
         id="path76"
         inkscape:connector-curvature="0" /><path
         d="m 2401.77,1061.42 c 0,-22.92 -6.8,-41.19 -20.4,-54.79 -15.44,-16.2 -35.54,-24.306 -60.3,-24.306 -23.69,0 -43.82,8.215 -60.4,24.646 -16.59,16.43 -24.87,36.8 -24.87,61.1 0,24.29 8.28,44.66 24.87,61.09 16.58,16.43 36.71,24.64 60.4,24.64 11.77,0 23,-2.28 33.71,-6.87 10.69,-4.59 19.25,-10.71 25.67,-18.34 l -14.44,-14.45 c -10.85,12.99 -25.83,19.49 -44.94,19.49 -17.27,0 -32.2,-6.07 -44.81,-18.23 -12.61,-12.15 -18.92,-27.93 -18.92,-47.33 0,-19.42 6.31,-35.19 18.92,-47.35 12.61,-12.15 27.54,-18.22 44.81,-18.22 18.34,0 33.63,6.11 45.85,18.34 7.95,7.95 12.53,19.04 13.75,33.24 h -59.6 v 19.72 h 79.55 c 0.77,-4.29 1.15,-8.41 1.15,-12.38"
         style="fill:#505156;fill-opacity:1;fill-rule:nonzero;stroke:none"
         id="path78"
         inkscape:connector-curvature="0" /><path
         d="m 2442.46,1012.71 c 7.26,-7.42 15.85,-11.13 25.79,-11.13 9.93,0 18.53,3.71 25.79,11.13 7.26,7.41 10.89,17.22 10.89,29.45 0,12.23 -3.63,22.04 -10.89,29.46 -7.26,7.42 -15.86,11.11 -25.79,11.11 -9.94,0 -18.53,-3.69 -25.79,-11.11 -7.26,-7.42 -10.89,-17.23 -10.89,-29.46 0,-12.23 3.63,-22.04 10.89,-29.45 z m -15.7,72.2 c 10.85,11.39 24.68,17.08 41.49,17.08 16.81,0 30.64,-5.69 41.5,-17.08 10.85,-11.38 16.27,-25.63 16.27,-42.75 0,-17.12 -5.42,-31.37 -16.27,-42.754 -10.86,-11.386 -24.69,-17.082 -41.5,-17.082 -16.81,0 -30.64,5.696 -41.49,17.082 -10.85,11.384 -16.28,25.634 -16.28,42.754 0,17.12 5.43,31.37 16.28,42.75"
         style="fill:#505156;fill-opacity:1;fill-rule:nonzero;stroke:none"
         id="path80"
         inkscape:connector-curvature="0" /><path
         d="m 2565.11,1012.71 c 7.25,-7.42 15.85,-11.13 25.79,-11.13 9.93,0 18.52,3.71 25.79,11.13 7.26,7.41 10.89,17.22 10.89,29.45 0,12.23 -3.63,22.04 -10.89,29.46 -7.27,7.42 -15.86,11.11 -25.79,11.11 -9.94,0 -18.54,-3.69 -25.79,-11.11 -7.27,-7.42 -10.89,-17.23 -10.89,-29.46 0,-12.23 3.62,-22.04 10.89,-29.45 z m -15.71,72.2 c 10.85,11.39 24.68,17.08 41.5,17.08 16.8,0 30.63,-5.69 41.49,-17.08 10.85,-11.38 16.27,-25.63 16.27,-42.75 0,-17.12 -5.42,-31.37 -16.27,-42.754 -10.86,-11.386 -24.69,-17.082 -41.49,-17.082 -16.82,0 -30.65,5.696 -41.5,17.082 -10.85,11.384 -16.28,25.634 -16.28,42.754 0,17.12 5.43,31.37 16.28,42.75"
         style="fill:#505156;fill-opacity:1;fill-rule:nonzero;stroke:none"
         id="path82"
         inkscape:connector-curvature="0" /><path
         d="m 2712.63,1001.58 c 9.93,0 18.38,3.67 25.33,11.01 6.95,7.33 10.43,17.2 10.43,29.57 0,12.38 -3.48,22.23 -10.43,29.57 -6.95,7.34 -15.4,11 -25.33,11 -9.79,0 -18.2,-3.69 -25.22,-11.11 -7.03,-7.42 -10.55,-17.23 -10.55,-29.46 0,-12.23 3.52,-22.04 10.55,-29.45 7.02,-7.42 15.43,-11.13 25.22,-11.13 z m -1.6,-68.767 c -13.31,0 -24.16,3.32 -32.56,9.972 -8.41,6.649 -14.45,14.258 -18.11,22.813 l 19.26,8.015 c 2.14,-6.101 6.07,-11.23 11.81,-15.351 5.72,-4.129 12.25,-6.192 19.6,-6.192 11.61,0 20.74,3.477 27.39,10.43 6.65,6.953 9.97,16.387 9.97,28.313 v 10.767 h -0.92 c -3.67,-5.494 -8.87,-10.084 -15.59,-13.748 -6.72,-3.672 -14.29,-5.508 -22.69,-5.508 -14.52,0 -27.05,5.735 -37.6,17.199 -10.55,11.467 -15.82,25.677 -15.82,42.637 0,16.96 5.27,31.18 15.82,42.64 10.55,11.46 23.08,17.19 37.6,17.19 8.4,0 15.97,-1.83 22.69,-5.49 6.72,-3.68 11.92,-8.26 15.59,-13.77 h 0.92 v 15.6 h 20.17 v -106.6 c 0,-19.257 -5.58,-33.886 -16.73,-43.906 -11.16,-10 -24.76,-15.011 -40.8,-15.011"
         style="fill:#505156;fill-opacity:1;fill-rule:nonzero;stroke:none"
         id="path84"
         inkscape:connector-curvature="0" /><path
         d="m 2809.59,985.996 h -21.08 v 164.144 h 21.08 V 985.996"
         style="fill:#505156;fill-opacity:1;fill-rule:nonzero;stroke:none"
         id="path86"
         inkscape:connector-curvature="0" /><path
         d="m 2909.54,1055.68 c -0.46,6.43 -3.41,12.53 -8.83,18.34 -5.43,5.82 -13.49,8.71 -24.19,8.71 -7.79,0 -14.55,-2.44 -20.28,-7.33 -5.73,-4.89 -9.67,-11.46 -11.81,-19.72 z m -30.26,-73.356 c -16.97,0 -30.76,5.656 -41.38,16.973 -10.62,11.303 -15.94,25.593 -15.94,42.863 0,16.36 5.16,30.41 15.48,42.19 10.31,11.76 23.5,17.64 39.54,17.64 16.66,0 29.99,-5.43 40,-16.28 10.01,-10.85 15.02,-25.37 15.02,-43.55 l -0.22,-3.9 h -88.72 c 0.6,-11.31 4.39,-20.25 11.34,-26.81 6.96,-6.57 15.09,-9.87 24.42,-9.87 15.13,0 25.37,6.43 30.72,19.26 l 18.79,-7.79 c -3.66,-8.71 -9.71,-16.019 -18.11,-21.898 -8.4,-5.879 -18.72,-8.828 -30.94,-8.828"
         style="fill:#505156;fill-opacity:1;fill-rule:nonzero;stroke:none"
         id="path88"
         inkscape:connector-curvature="0" /><path
         d="m 3014.99,1072.65 h 35.3 c 8.86,0 15.97,2.99 21.32,8.94 5.35,5.96 8.03,12.53 8.03,19.72 0,7.18 -2.68,13.75 -8.03,19.71 -5.35,5.96 -12.46,8.94 -21.32,8.94 h -35.3 z m 0,-86.654 h -21.09 v 164.144 h 55.93 c 13.91,0 25.94,-4.63 36.11,-13.87 10.16,-9.26 15.24,-20.91 15.24,-34.96 0,-14.06 -5.08,-25.72 -15.24,-34.96 -10.17,-9.25 -22.2,-13.87 -36.11,-13.87 h -34.84 v -66.484"
         style="fill:#505156;fill-opacity:1;fill-rule:nonzero;stroke:none"
         id="path90"
         inkscape:connector-curvature="0" /><path
         d="m 3136.03,985.996 h -21.09 v 164.144 h 21.09 V 985.996"
         style="fill:#505156;fill-opacity:1;fill-rule:nonzero;stroke:none"
         id="path92"
         inkscape:connector-curvature="0" /><path
         d="m 3193.79,1001.58 c 8.71,0 16.62,3.26 23.73,9.75 7.11,6.49 10.65,14.17 10.65,23.04 -5.95,4.89 -14.89,7.33 -26.81,7.33 -10.25,0 -17.96,-2.22 -23.16,-6.64 -5.19,-4.44 -7.79,-9.63 -7.79,-15.6 0,-5.5 2.36,-9.85 7.11,-13.06 4.73,-3.2 10.16,-4.82 16.27,-4.82 z m -3.44,-19.256 c -11.92,0 -21.89,3.449 -29.91,10.324 -8.03,6.875 -12.04,15.962 -12.04,27.272 0,12.23 4.73,21.82 14.22,28.77 9.47,6.95 21.16,10.43 35.07,10.43 12.38,0 22.54,-2.28 30.48,-6.87 v 3.21 c 0,8.25 -2.82,14.86 -8.47,19.83 -5.66,4.96 -12.61,7.44 -20.86,7.44 -6.12,0 -11.66,-1.45 -16.62,-4.35 -4.97,-2.9 -8.37,-6.88 -10.21,-11.92 l -19.26,8.26 c 2.6,6.72 7.72,12.95 15.36,18.68 7.64,5.73 17.73,8.59 30.27,8.59 14.36,0 26.28,-4.2 35.76,-12.6 9.47,-8.41 14.21,-20.26 14.21,-35.54 v -67.854 h -20.18 v 15.584 h -0.9 c -8.41,-12.83 -20.72,-19.256 -36.92,-19.256"
         style="fill:#505156;fill-opacity:1;fill-rule:nonzero;stroke:none"
         id="path94"
         inkscape:connector-curvature="0" /><path
         d="m 3294.21,936.484 h -21.78 l 26.13,56.621 -46.3,105.225 h 22.92 l 33.47,-80.7 h 0.46 l 32.55,80.7 h 22.92 l -70.37,-161.846"
         style="fill:#505156;fill-opacity:1;fill-rule:nonzero;stroke:none"
         id="path96"
         inkscape:connector-curvature="0" /><path
         d="m 1842.42,1070.85 c 0,52.43 0.02,104.86 -0.03,157.28 0,6.44 1.25,12.31 5.81,17.17 1.77,1.89 3.04,2.4 5.22,0.18 35.27,-36 70.63,-71.91 105.99,-107.83 22.89,-23.26 45.77,-46.53 68.76,-69.7 2.23,-2.25 2.43,-3.43 0.07,-5.78 -56.23,-55.9 -112.41,-111.861 -168.43,-167.963 -3.43,-3.43 -5.83,-3.066 -9.11,-0.539 -6.01,4.617 -8.31,10.805 -8.3,18.168 0.01,31.051 -0.05,62.105 -0.07,93.154 -0.01,21.96 0,43.91 0,65.86 0.03,0 0.06,0 0.09,0"
         style="fill:#4f4c4c;fill-opacity:1;fill-rule:nonzero;stroke:none"
         id="path98"
         inkscape:connector-curvature="0" /><path
         d="m 1862.57,1251.29 c 4.29,0.03 7.31,-1.21 10.23,-2.84 71.8,-40.24 143.59,-80.49 215.44,-120.64 3.3,-1.84 3.23,-2.88 0.68,-5.38 -16.06,-15.8 -31.99,-31.73 -47.91,-47.67 -1.72,-1.72 -2.76,-2.71 -5.07,-0.37 -57.12,58.27 -114.33,116.44 -171.52,174.63 -0.48,0.49 -0.88,1.07 -1.85,2.27"
         style="fill:#4f4c4c;fill-opacity:1;fill-rule:nonzero;stroke:none"
         id="path100"
         inkscape:connector-curvature="0" /><path
         d="m 1878.64,895.539 c 52.12,52.68 104.27,105.321 156.27,158.121 3.22,3.28 4.73,2.84 7.62,-0.17 13.21,-13.75 26.61,-27.32 40.07,-40.82 2.37,-2.38 2.57,-3.35 -0.64,-5.11 -66.91,-36.622 -133.76,-73.357 -200.62,-110.056 -1.1,-0.602 -2.13,-1.598 -2.7,-1.965"
         style="fill:#4f4c4c;fill-opacity:1;fill-rule:nonzero;stroke:none"
         id="path102"
         inkscape:connector-curvature="0" /><path
         d="m 2176.37,1069.39 c -0.22,-5.91 -3.01,-10.05 -7.23,-13.16 -3.12,-2.3 -6.56,-4.2 -9.97,-6.08 -20.23,-11.19 -40.51,-22.26 -60.7,-33.52 -2.72,-1.52 -4.34,-1.45 -6.59,0.88 -14.37,14.84 -28.87,29.56 -43.45,44.2 -2.12,2.13 -2.18,3.3 0,5.44 16.98,16.73 33.87,33.55 50.69,50.45 1.98,1.99 3.4,2.22 5.87,0.82 19.98,-11.33 40.06,-22.49 60.09,-33.72 6.2,-3.47 11.02,-7.97 11.29,-15.31"
         style="fill:#4f4c4c;fill-opacity:1;fill-rule:nonzero;stroke:none"
         id="path104"
         inkscape:connector-curvature="0" /></g></g></svg>